<svg xmlns="http://www.w3.org/2000/svg" enable-background="new 0 0 28 28" viewBox="0 0 28 28" id="mixcloud"><path fill="#FFA0C6" d="M20.425,13.312l-0.116,2.649c-0.072,1.653-1.47,2.934-3.123,2.862L5.56,18.315c-1.653-0.072-2.934-1.47-2.862-3.123l0.116-2.649c0.072-1.653,1.47-2.934,3.123-2.862l11.626,0.508C19.216,10.261,20.497,11.659,20.425,13.312z"></path><path d="M17.156 20.107H6.26c-2.625 0-4.76-2.111-4.76-4.706 0-2.213 1.599-4.138 3.766-4.596C6.284 8.218 8.803 6.5 11.625 6.5c3.414 0 6.258 2.449 6.756 5.751 1.67.516 2.848 2.073 2.848 3.83C21.229 18.301 19.401 20.107 17.156 20.107zM11.625 7.5c-2.496 0-4.712 1.571-5.517 3.909-.061.178-.215.306-.4.333C3.879 12.008 2.5 13.581 2.5 15.401c0 2.044 1.687 3.706 3.76 3.706h10.896c1.694 0 3.073-1.357 3.073-3.026 0-1.408-1.012-2.646-2.406-2.943-.213-.046-.372-.224-.393-.44C17.137 9.734 14.642 7.5 11.625 7.5zM22.322 19.871c-.097 0-.195-.028-.281-.087-.229-.155-.288-.466-.132-.694.604-.888.923-1.928.923-3.008 0-1.082-.32-2.117-.923-2.995-.156-.228-.099-.539.129-.695.228-.155.539-.1.695.129.719 1.045 1.099 2.276 1.099 3.562 0 1.281-.378 2.517-1.097 3.57C22.639 19.795 22.482 19.871 22.322 19.871zM24.604 21.149c-.097 0-.194-.028-.28-.086-.229-.155-.288-.467-.133-.694.851-1.254 1.303-2.725 1.309-4.255 0-.01-.001-.021-.001-.03 0-1.545-.453-3.023-1.308-4.275-.156-.229-.098-.539.13-.695.229-.153.54-.096.695.131.964 1.41 1.476 3.071 1.483 4.806 0 .011.001.021.001.032 0 1.743-.512 3.42-1.482 4.848C24.921 21.072 24.764 21.149 24.604 21.149z"></path><path d="M9 13.5c-.184 0-.36-.102-.448-.276-.835-1.671-2.844-1.479-2.865-1.479-.276.029-.521-.172-.549-.445-.029-.274.17-.521.445-.549.11-.01 2.721-.257 3.863 2.026.124.247.023.547-.224.671C9.152 13.483 9.076 13.5 9 13.5zM15 17.5c-.236 0-.446-.168-.491-.408-.051-.271.127-.532.399-.583 2.555-.479 2.52-3.816 2.519-3.85-.005-.276.214-.504.49-.51.316-.019.504.215.51.49.028 1.457-.633 4.345-3.334 4.852C15.061 17.497 15.03 17.5 15 17.5z"></path></svg>