<?xml version="1.0" encoding="utf-8"?>
<!-- Generator: Adobe Illustrator 27.5.0, SVG Export Plug-In . SVG Version: 6.00 Build 0)  -->
<svg version="1.1" id="Ebene_1" xmlns="http://www.w3.org/2000/svg" xmlns:xlink="http://www.w3.org/1999/xlink" x="0px" y="0px"
	 viewBox="0 0 425.2 124.72" style="enable-background:new 0 0 425.2 124.72;" xml:space="preserve">
<style type="text/css">
	.st0{fill:#FFFFFF;}
</style>
<rect x="0" y="0" class="st0" width="425.2" height="124.72"/>
<rect x="0" y="0" width="124.58" height="62.35"/>
<g>
	<rect x="52.12" y="12.47" class="st0" width="24.62" height="2.64"/>
	<rect x="63.12" y="19.06" class="st0" width="2.64" height="30.82"/>
</g>
<g>
	<rect x="90.16" y="29.86" class="st0" width="15.36" height="2.64"/>
	<rect x="83.57" y="12.47" class="st0" width="2.64" height="37.41"/>
	<rect x="109.48" y="12.47" class="st0" width="2.64" height="37.41"/>
</g>
<g>
	<path class="st0" d="M45.72,19.42l-1.88,1.88c2.13,2.73,3.4,6.15,3.4,9.87c0,8.86-7.21,16.07-16.07,16.07
		c-3.72,0-7.15-1.27-9.87-3.4l-1.88,1.88c3.21,2.6,7.3,4.16,11.75,4.16c10.33,0,18.71-8.37,18.71-18.71
		C49.88,26.72,48.32,22.64,45.72,19.42z"/>
	<path class="st0" d="M18.51,41.05c-2.13-2.73-3.4-6.15-3.4-9.87c0-8.86,7.21-16.07,16.07-16.07c3.72,0,7.14,1.27,9.87,3.4
		l1.88-1.88c-3.21-2.6-7.3-4.16-11.75-4.16c-10.33,0-18.71,8.37-18.71,18.71c0,4.45,1.56,8.54,4.16,11.75L18.51,41.05z"/>
</g>
<g>
	<path d="M141.92,12.34c2.61,0,4.61,2.05,4.61,4.74c0,2.69-2,4.74-4.61,4.74s-4.61-2.05-4.61-4.74
		C137.32,14.39,139.32,12.34,141.92,12.34z M141.92,20.57c1.88,0,3.29-1.49,3.29-3.49c0-1.99-1.41-3.49-3.29-3.49
		s-3.29,1.5-3.29,3.49C138.63,19.08,140.04,20.57,141.92,20.57z"/>
	<path d="M150.07,19.38c0.54,0.66,1.3,1.18,2.25,1.18c0.86,0,1.61-0.55,1.61-1.38c0-1.41-1.95-1.57-3.17-2.37
		c-0.66-0.43-1.17-1.07-1.17-2.03c0-1.34,1.19-2.45,2.79-2.45c1.17,0,1.99,0.51,2.48,0.92l-0.78,0.96c-0.5-0.42-1.07-0.63-1.65-0.63
		c-0.76,0-1.53,0.43-1.53,1.24c0,1.17,1.96,1.42,3.15,2.21c0.62,0.41,1.2,1.05,1.2,2.11c0,1.62-1.25,2.67-2.86,2.67
		c-1.26,0-2.41-0.55-3.23-1.54L150.07,19.38z"/>
	<path d="M157.55,12.47h6.32v1.25h-2.5v7.97h-1.32v-7.97h-2.5V12.47z"/>
	<path d="M167.09,21.69v-9.22h3.13c0.9,0,1.46,0.25,1.9,0.65c0.47,0.43,0.76,1.07,0.76,1.75c0,0.63-0.29,1.24-0.72,1.65
		c0.87,0.43,1.51,1.38,1.51,2.42c0,0.86-0.4,1.63-1.01,2.13c-0.47,0.4-1.08,0.62-2.01,0.62H167.09z M169.99,16.09
		c0.74,0,1.05-0.14,1.26-0.38c0.2-0.21,0.32-0.49,0.32-0.8c0-0.32-0.12-0.59-0.32-0.8c-0.21-0.24-0.53-0.38-1.26-0.38h-1.58v2.37
		H169.99z M170.41,20.44c0.83,0,1.22-0.18,1.51-0.47c0.26-0.28,0.43-0.66,0.43-1.08s-0.17-0.79-0.43-1.07
		c-0.29-0.29-0.68-0.47-1.51-0.47h-2v3.09H170.41z"/>
	<path d="M182.13,19.32h-3.88l-0.96,2.37h-1.37l3.82-9.22h0.92l3.82,9.22h-1.37L182.13,19.32z M178.77,18.07h2.84l-1.42-3.42
		L178.77,18.07z"/>
	<path d="M189.94,17.48v4.21h-1.32v-4.21l-3.16-5h1.47l2.34,3.7l2.34-3.7h1.47L189.94,17.48z"/>
	<path d="M200.6,16.09v1.25h-3.03v3.09h4.08v1.25h-5.4v-9.22h5.27v1.25h-3.95v2.37H200.6z"/>
	<path d="M206.52,17.34v4.34h-1.32v-9.22h3.23c0.84,0,1.37,0.2,1.79,0.54c0.55,0.45,0.91,1.13,0.91,1.9c0,0.76-0.36,1.45-0.91,1.9
		c-0.29,0.24-0.62,0.41-1.08,0.49l3.3,4.4h-1.59l-3.28-4.34H206.52z M208.37,16.09c0.59,0,0.9-0.13,1.11-0.34
		c0.21-0.21,0.34-0.51,0.34-0.84s-0.13-0.63-0.34-0.84c-0.21-0.21-0.51-0.34-1.11-0.34h-1.84v2.37H208.37z"/>
	<path d="M215.48,12.47h1.32v9.22h-1.32V12.47z"/>
	<path d="M221.13,19.38c0.54,0.66,1.3,1.18,2.25,1.18c0.86,0,1.61-0.55,1.61-1.38c0-1.41-1.95-1.57-3.17-2.37
		c-0.66-0.43-1.17-1.07-1.17-2.03c0-1.34,1.19-2.45,2.79-2.45c1.17,0,1.99,0.51,2.48,0.92l-0.78,0.96c-0.5-0.42-1.07-0.63-1.65-0.63
		c-0.76,0-1.53,0.43-1.53,1.24c0,1.17,1.96,1.42,3.15,2.21c0.62,0.41,1.2,1.05,1.2,2.11c0,1.62-1.25,2.67-2.86,2.67
		c-1.26,0-2.41-0.55-3.23-1.54L221.13,19.38z"/>
	<path d="M233.79,12.34c1.32,0,2.57,0.54,3.37,1.42l-0.88,0.87c-0.54-0.59-1.5-1.04-2.49-1.04c-1.88,0-3.34,1.5-3.34,3.49
		c0,2.08,1.5,3.49,3.46,3.49c1.24,0,2.13-0.68,2.65-1.3l0.93,0.84c-0.79,1.01-2.16,1.71-3.58,1.71c-2.75,0-4.78-2.01-4.78-4.74
		C229.13,14.42,231.13,12.34,233.79,12.34z"/>
	<path d="M247.23,17.34h-5.13v4.34h-1.32v-9.22h1.32v3.62h5.13v-3.62h1.32v9.22h-1.32V17.34z"/>
	<path d="M257.11,16.09v1.25h-3.03v3.09h4.08v1.25h-5.4v-9.22h5.27v1.25h-3.95v2.37H257.11z"/>
	<path d="M137.05,26.57h6.32v1.25h-2.5v7.97h-1.32v-7.97h-2.5V26.57z"/>
	<path d="M150.94,30.19v1.25h-3.03v3.09h4.08v1.25h-5.4v-9.22h5.27v1.25h-3.95v2.37H150.94z"/>
	<path d="M159.22,26.44c1.32,0,2.57,0.54,3.37,1.42l-0.88,0.87c-0.54-0.59-1.5-1.04-2.49-1.04c-1.88,0-3.34,1.5-3.34,3.49
		c0,2.08,1.5,3.49,3.46,3.49c1.24,0,2.13-0.68,2.65-1.3l0.93,0.84c-0.79,1.01-2.16,1.71-3.58,1.71c-2.75,0-4.78-2.01-4.78-4.74
		C154.56,28.52,156.56,26.44,159.22,26.44z"/>
	<path d="M172.66,31.44h-5.13v4.34h-1.32v-9.22h1.32v3.62h5.13v-3.62h1.32v9.22h-1.32V31.44z"/>
	<path d="M179.51,29.02v6.77h-1.32v-9.22h0.92l5.53,6.77v-6.77h1.32v9.22h-0.92L179.51,29.02z"/>
	<path d="M190.17,26.57h1.32v9.22h-1.32V26.57z"/>
	<path d="M195.82,33.48c0.54,0.66,1.3,1.18,2.25,1.18c0.86,0,1.61-0.55,1.61-1.38c0-1.41-1.95-1.57-3.17-2.37
		c-0.66-0.43-1.17-1.07-1.17-2.03c0-1.34,1.19-2.45,2.79-2.45c1.17,0,1.99,0.51,2.48,0.92l-0.78,0.96c-0.5-0.42-1.07-0.63-1.65-0.63
		c-0.76,0-1.53,0.43-1.53,1.24c0,1.17,1.96,1.42,3.15,2.21c0.62,0.41,1.2,1.05,1.2,2.11c0,1.62-1.25,2.67-2.86,2.67
		c-1.26,0-2.41-0.55-3.23-1.54L195.82,33.48z"/>
	<path d="M208.49,26.44c1.32,0,2.57,0.54,3.37,1.42l-0.88,0.87c-0.54-0.59-1.5-1.04-2.49-1.04c-1.88,0-3.34,1.5-3.34,3.49
		c0,2.08,1.5,3.49,3.46,3.49c1.24,0,2.13-0.68,2.65-1.3l0.93,0.84c-0.79,1.01-2.16,1.71-3.58,1.71c-2.75,0-4.78-2.01-4.78-4.74
		C203.83,28.52,205.83,26.44,208.49,26.44z"/>
	<path d="M221.93,31.44h-5.13v4.34h-1.32v-9.22h1.32v3.62h5.13v-3.62h1.32v9.22h-1.32V31.44z"/>
	<path d="M231.8,30.19v1.25h-3.03v3.09h4.08v1.25h-5.4v-9.22h5.27v1.25h-3.95v2.37H231.8z"/>
	<path d="M248.26,31.44h-5.13v4.34h-1.32v-9.22h1.32v3.62h5.13v-3.62h1.32v9.22h-1.32V31.44z"/>
	<path d="M257.67,26.44c2.61,0,4.61,2.05,4.61,4.74c0,2.69-2,4.74-4.61,4.74c-2.61,0-4.61-2.05-4.61-4.74
		C253.06,28.49,255.06,26.44,257.67,26.44z M257.67,34.67c1.88,0,3.29-1.49,3.29-3.49c0-1.99-1.41-3.49-3.29-3.49
		c-1.88,0-3.29,1.5-3.29,3.49C254.38,33.18,255.79,34.67,257.67,34.67z"/>
	<path d="M269.97,26.44c1.32,0,2.57,0.54,3.37,1.42l-0.88,0.87c-0.54-0.59-1.5-1.04-2.49-1.04c-1.88,0-3.34,1.5-3.34,3.49
		c0,2.08,1.5,3.49,3.46,3.49c1.24,0,2.13-0.68,2.65-1.3l0.93,0.84c-0.79,1.01-2.16,1.71-3.58,1.71c-2.75,0-4.78-2.01-4.78-4.74
		C265.31,28.52,267.31,26.44,269.97,26.44z"/>
	<path d="M283.41,31.44h-5.13v4.34h-1.32v-9.22h1.32v3.62h5.13v-3.62h1.32v9.22h-1.32V31.44z"/>
	<path d="M289.06,33.48c0.54,0.66,1.3,1.18,2.25,1.18c0.86,0,1.61-0.55,1.61-1.38c0-1.41-1.95-1.57-3.17-2.37
		c-0.66-0.43-1.17-1.07-1.17-2.03c0-1.34,1.19-2.45,2.79-2.45c1.17,0,1.99,0.51,2.48,0.92l-0.78,0.96c-0.5-0.42-1.07-0.63-1.65-0.63
		c-0.76,0-1.53,0.43-1.53,1.24c0,1.17,1.96,1.42,3.15,2.21c0.62,0.41,1.2,1.05,1.2,2.11c0,1.62-1.25,2.67-2.86,2.67
		c-1.26,0-2.41-0.55-3.23-1.54L289.06,33.48z"/>
	<path d="M301.72,26.44c1.32,0,2.57,0.54,3.37,1.42l-0.88,0.87c-0.54-0.59-1.5-1.04-2.49-1.04c-1.88,0-3.34,1.5-3.34,3.49
		c0,2.08,1.5,3.49,3.46,3.49c1.24,0,2.13-0.68,2.65-1.3l0.93,0.84c-0.79,1.01-2.16,1.71-3.58,1.71c-2.75,0-4.78-2.01-4.78-4.74
		C297.06,28.52,299.06,26.44,301.72,26.44z"/>
	<path d="M315.16,31.44h-5.13v4.34h-1.32v-9.22h1.32v3.62h5.13v-3.62h1.32v9.22h-1.32V31.44z"/>
	<path d="M321.52,34.7c-0.59-0.65-0.96-1.5-0.96-2.74v-5.4h1.32v5.46c0,0.87,0.21,1.41,0.58,1.82c0.46,0.51,1.15,0.82,1.92,0.82
		c0.78,0,1.46-0.3,1.92-0.82c0.37-0.41,0.58-0.95,0.58-1.82v-5.46h1.32v5.4c0,1.24-0.37,2.09-0.96,2.74
		c-0.7,0.75-1.72,1.21-2.86,1.21C323.24,35.92,322.22,35.46,321.52,34.7z"/>
	<path d="M333.59,34.53h4.08v1.25h-5.4v-9.22h1.32V34.53z"/>
	<path d="M345.31,30.19v1.25h-3.03v3.09h4.08v1.25h-5.4v-9.22h5.27v1.25h-3.95v2.37H345.31z"/>
	<path d="M139.36,45.54v4.34h-1.32v-9.22h3.23c0.84,0,1.37,0.2,1.79,0.54c0.55,0.45,0.91,1.13,0.91,1.9c0,0.76-0.36,1.45-0.91,1.9
		c-0.29,0.24-0.62,0.41-1.08,0.49l3.3,4.4h-1.59l-3.28-4.34H139.36z M141.2,44.28c0.59,0,0.9-0.13,1.11-0.34
		c0.21-0.21,0.34-0.51,0.34-0.84c0-0.33-0.13-0.63-0.34-0.84c-0.21-0.21-0.51-0.34-1.11-0.34h-1.84v2.37H141.2z"/>
	<path d="M152.65,44.28v1.25h-3.03v3.09h4.08v1.25h-5.4v-9.22h5.27v1.25h-3.95v2.37H152.65z"/>
	<path d="M164.63,48.3c-0.79,1-2.16,1.71-3.58,1.71c-2.75,0-4.78-2.01-4.78-4.74c0-2.66,2-4.74,4.66-4.74
		c1.32,0,2.57,0.54,3.37,1.42l-0.88,0.87c-0.54-0.59-1.5-1.04-2.49-1.04c-1.88,0-3.34,1.5-3.34,3.49c0,2.08,1.5,3.49,3.46,3.49
		c0.97,0,1.78-0.37,2.26-0.86v-2.37h-2.63v-1.25h3.95V48.3z"/>
	<path d="M172.86,44.28v1.25h-3.03v3.09h4.08v1.25h-5.4v-9.22h5.27v1.25h-3.95v2.37H172.86z"/>
	<path d="M178.79,43.11v6.77h-1.32v-9.22h0.92l5.53,6.77v-6.77h1.32v9.22h-0.92L178.79,43.11z"/>
	<path d="M189.57,47.58c0.54,0.66,1.3,1.18,2.25,1.18c0.86,0,1.61-0.55,1.61-1.38c0-1.41-1.95-1.57-3.17-2.37
		c-0.66-0.43-1.17-1.07-1.17-2.03c0-1.34,1.19-2.45,2.79-2.45c1.17,0,1.99,0.51,2.48,0.92l-0.78,0.96c-0.5-0.42-1.07-0.63-1.65-0.63
		c-0.76,0-1.53,0.43-1.53,1.24c0,1.17,1.96,1.42,3.15,2.21c0.62,0.41,1.2,1.05,1.2,2.11c0,1.62-1.25,2.67-2.86,2.67
		c-1.26,0-2.41-0.55-3.23-1.54L189.57,47.58z"/>
	<path d="M198.3,49.88v-9.22h3.13c0.9,0,1.46,0.25,1.9,0.65c0.47,0.43,0.76,1.07,0.76,1.75c0,0.63-0.29,1.24-0.72,1.65
		c0.87,0.43,1.51,1.38,1.51,2.42c0,0.86-0.4,1.63-1.01,2.13c-0.47,0.4-1.08,0.62-2.01,0.62H198.3z M201.19,44.28
		c0.74,0,1.05-0.14,1.26-0.38c0.2-0.21,0.32-0.49,0.32-0.8c0-0.32-0.12-0.59-0.32-0.8c-0.21-0.24-0.53-0.38-1.26-0.38h-1.58v2.37
		H201.19z M201.61,48.63c0.83,0,1.22-0.18,1.51-0.47c0.26-0.28,0.43-0.66,0.43-1.08c0-0.42-0.17-0.79-0.43-1.07
		c-0.29-0.29-0.68-0.47-1.51-0.47h-2v3.09H201.61z"/>
	<path d="M209.13,48.8c-0.59-0.65-0.96-1.5-0.96-2.74v-5.4h1.32v5.46c0,0.87,0.21,1.41,0.58,1.82c0.46,0.51,1.15,0.82,1.92,0.82
		s1.46-0.3,1.92-0.82c0.37-0.41,0.58-0.95,0.58-1.82v-5.46h1.32v5.4c0,1.24-0.37,2.09-0.96,2.74c-0.7,0.75-1.72,1.21-2.86,1.21
		C210.86,50.01,209.83,49.55,209.13,48.8z"/>
	<path d="M221.2,45.54v4.34h-1.32v-9.22h3.23c0.84,0,1.37,0.2,1.79,0.54c0.55,0.45,0.91,1.13,0.91,1.9c0,0.76-0.36,1.45-0.91,1.9
		c-0.29,0.24-0.62,0.41-1.08,0.49l3.3,4.4h-1.59l-3.28-4.34H221.2z M223.05,44.28c0.59,0,0.9-0.13,1.11-0.34
		c0.21-0.21,0.34-0.51,0.34-0.84c0-0.33-0.13-0.63-0.34-0.84c-0.21-0.21-0.51-0.34-1.11-0.34h-1.84v2.37H223.05z"/>
	<path d="M237.46,48.3c-0.79,1-2.16,1.71-3.58,1.71c-2.75,0-4.78-2.01-4.78-4.74c0-2.66,2-4.74,4.66-4.74
		c1.32,0,2.57,0.54,3.37,1.42l-0.88,0.87c-0.54-0.59-1.5-1.04-2.49-1.04c-1.88,0-3.34,1.5-3.34,3.49c0,2.08,1.5,3.49,3.46,3.49
		c0.97,0,1.78-0.37,2.26-0.86v-2.37h-2.63v-1.25h3.95V48.3z"/>
</g>
<rect x="0" y="118.11" width="124.58" height="6.62"/>
<g>
	<path d="M139.36,79.69v4.35h-1.32v-9.22h3.23c0.84,0,1.37,0.2,1.79,0.54c0.55,0.45,0.91,1.13,0.91,1.9s-0.36,1.45-0.91,1.9
		c-0.29,0.24-0.62,0.41-1.08,0.49l3.31,4.4h-1.59l-3.28-4.35H139.36z M141.2,78.44c0.59,0,0.9-0.13,1.11-0.34
		c0.21-0.21,0.34-0.51,0.34-0.84s-0.13-0.63-0.34-0.84c-0.21-0.21-0.51-0.34-1.11-0.34h-1.84v2.37H141.2z"/>
	<path d="M152.65,78.44v1.25h-3.03v3.09h4.08v1.25h-5.4v-9.22h5.27v1.25h-3.95v2.37H152.65z"/>
	<path d="M164.63,82.45c-0.79,1-2.16,1.71-3.58,1.71c-2.75,0-4.78-2.02-4.78-4.74c0-2.66,2-4.74,4.66-4.74
		c1.32,0,2.57,0.54,3.37,1.42l-0.88,0.87c-0.54-0.59-1.5-1.04-2.49-1.04c-1.88,0-3.34,1.5-3.34,3.49c0,2.08,1.5,3.49,3.46,3.49
		c0.97,0,1.78-0.37,2.26-0.86v-2.37h-2.63v-1.25h3.95V82.45z"/>
	<path d="M172.86,78.44v1.25h-3.03v3.09h4.08v1.25h-5.4v-9.22h5.27v1.25h-3.95v2.37H172.86z"/>
	<path d="M178.79,77.27v6.77h-1.32v-9.22h0.92l5.53,6.77v-6.77h1.32v9.22h-0.92L178.79,77.27z"/>
	<path d="M189.57,81.73c0.54,0.66,1.3,1.19,2.25,1.19c0.86,0,1.61-0.55,1.61-1.38c0-1.41-1.95-1.57-3.17-2.37
		c-0.66-0.43-1.17-1.07-1.17-2.03c0-1.34,1.18-2.45,2.79-2.45c1.17,0,1.99,0.51,2.48,0.92l-0.78,0.96c-0.5-0.42-1.07-0.63-1.65-0.63
		c-0.76,0-1.53,0.43-1.53,1.24c0,1.17,1.96,1.42,3.15,2.21c0.62,0.41,1.2,1.05,1.2,2.11c0,1.62-1.25,2.67-2.86,2.67
		c-1.26,0-2.41-0.55-3.23-1.54L189.57,81.73z"/>
	<path d="M198.3,84.03v-9.22h3.13c0.9,0,1.46,0.25,1.9,0.65c0.47,0.43,0.76,1.07,0.76,1.75c0,0.63-0.29,1.24-0.72,1.65
		c0.87,0.43,1.51,1.38,1.51,2.42c0,0.86-0.4,1.63-1.01,2.13c-0.47,0.4-1.08,0.62-2.01,0.62H198.3z M201.19,78.44
		c0.74,0,1.05-0.14,1.26-0.38c0.2-0.21,0.32-0.49,0.32-0.8s-0.12-0.59-0.32-0.8c-0.21-0.24-0.53-0.38-1.26-0.38h-1.58v2.37H201.19z
		 M201.61,82.78c0.83,0,1.22-0.18,1.51-0.47c0.26-0.28,0.43-0.66,0.43-1.08s-0.17-0.79-0.43-1.07c-0.29-0.29-0.68-0.47-1.51-0.47h-2
		v3.09H201.61z"/>
	<path d="M209.13,82.95c-0.59-0.65-0.96-1.5-0.96-2.74v-5.4h1.32v5.46c0,0.87,0.21,1.41,0.58,1.82c0.46,0.51,1.15,0.82,1.92,0.82
		s1.46-0.3,1.92-0.82c0.37-0.41,0.58-0.95,0.58-1.82v-5.46h1.32v5.4c0,1.24-0.37,2.09-0.96,2.74c-0.7,0.75-1.72,1.21-2.86,1.21
		S209.83,83.7,209.13,82.95z"/>
	<path d="M221.2,79.69v4.35h-1.32v-9.22h3.23c0.84,0,1.37,0.2,1.79,0.54c0.55,0.45,0.91,1.13,0.91,1.9s-0.36,1.45-0.91,1.9
		c-0.29,0.24-0.62,0.41-1.08,0.49l3.3,4.4h-1.59l-3.28-4.35H221.2z M223.05,78.44c0.59,0,0.9-0.13,1.11-0.34
		c0.21-0.21,0.34-0.51,0.34-0.84s-0.13-0.63-0.34-0.84c-0.21-0.21-0.51-0.34-1.11-0.34h-1.84v2.37H223.05z"/>
	<path d="M237.47,82.45c-0.79,1-2.16,1.71-3.58,1.71c-2.75,0-4.78-2.02-4.78-4.74c0-2.66,2-4.74,4.66-4.74
		c1.32,0,2.57,0.54,3.37,1.42l-0.88,0.87c-0.54-0.59-1.5-1.04-2.49-1.04c-1.88,0-3.34,1.5-3.34,3.49c0,2.08,1.5,3.49,3.46,3.49
		c0.97,0,1.78-0.37,2.27-0.86v-2.37h-2.63v-1.25h3.95V82.45z"/>
	<path d="M246.6,81.73c0.54,0.66,1.3,1.19,2.25,1.19c0.86,0,1.61-0.55,1.61-1.38c0-1.41-1.95-1.57-3.17-2.37
		c-0.66-0.43-1.17-1.07-1.17-2.03c0-1.34,1.19-2.45,2.79-2.45c1.17,0,1.99,0.51,2.48,0.92l-0.78,0.96c-0.5-0.42-1.07-0.63-1.65-0.63
		c-0.76,0-1.53,0.43-1.53,1.24c0,1.17,1.96,1.42,3.15,2.21c0.62,0.41,1.2,1.05,1.2,2.11c0,1.62-1.25,2.67-2.86,2.67
		c-1.26,0-2.41-0.55-3.23-1.54L246.6,81.73z"/>
	<path d="M259.26,74.68c1.32,0,2.57,0.54,3.37,1.42l-0.88,0.87c-0.54-0.59-1.5-1.04-2.49-1.04c-1.88,0-3.34,1.5-3.34,3.49
		c0,2.08,1.5,3.49,3.46,3.49c1.24,0,2.13-0.69,2.65-1.3l0.94,0.84c-0.79,1.01-2.16,1.71-3.58,1.71c-2.75,0-4.78-2.02-4.78-4.74
		C254.6,76.76,256.61,74.68,259.26,74.68z"/>
	<path d="M272.71,79.69h-5.14v4.35h-1.32v-9.22h1.32v3.62h5.14v-3.62h1.32v9.22h-1.32V79.69z"/>
	<path d="M282.12,74.68c2.61,0,4.61,2.05,4.61,4.74s-2,4.74-4.61,4.74c-2.61,0-4.61-2.05-4.61-4.74S279.51,74.68,282.12,74.68z
		 M282.12,82.91c1.88,0,3.29-1.49,3.29-3.49c0-1.99-1.41-3.49-3.29-3.49c-1.88,0-3.29,1.5-3.29,3.49
		C278.83,81.43,280.24,82.91,282.12,82.91z"/>
	<path d="M294.36,74.68c2.61,0,4.61,2.05,4.61,4.74s-2,4.74-4.61,4.74c-2.61,0-4.61-2.05-4.61-4.74S291.76,74.68,294.36,74.68z
		 M294.36,82.91c1.88,0,3.29-1.49,3.29-3.49c0-1.99-1.41-3.49-3.29-3.49c-1.88,0-3.29,1.5-3.29,3.49
		C291.07,81.43,292.48,82.91,294.36,82.91z"/>
	<path d="M303.77,82.78h4.08v1.25h-5.4v-9.22h1.32V82.78z"/>
	<path d="M141.92,88.78c2.61,0,4.61,2.05,4.61,4.74c0,2.69-2,4.74-4.61,4.74s-4.61-2.05-4.61-4.74
		C137.32,90.83,139.32,88.78,141.92,88.78z M141.92,97.01c1.88,0,3.29-1.49,3.29-3.49c0-1.99-1.41-3.49-3.29-3.49
		c-1.88,0-3.29,1.5-3.29,3.49C138.63,95.52,140.04,97.01,141.92,97.01z"/>
	<path d="M154.37,92.53v1.25h-3.03v4.35h-1.32v-9.22h5.27v1.25h-3.95v2.37H154.37z"/>
	<path d="M163.71,98.13v-9.22h2.77c1.46,0,2.41,0.32,3.16,0.87c1.13,0.84,1.84,2.21,1.84,3.74c0,1.53-0.7,2.9-1.83,3.74
		c-0.75,0.55-1.71,0.87-3.17,0.87H163.71z M169.05,90.94c-0.58-0.5-1.34-0.78-2.63-0.78h-1.38v6.72h1.38c1.29,0,2.05-0.28,2.63-0.78
		c0.7-0.62,1.12-1.55,1.12-2.58C170.16,92.49,169.74,91.56,169.05,90.94z"/>
	<path d="M174.97,88.91h1.32v9.22h-1.32V88.91z"/>
	<path d="M188.13,96.55c-0.79,1-2.16,1.71-3.58,1.71c-2.75,0-4.78-2.01-4.78-4.74c0-2.66,2-4.74,4.66-4.74
		c1.32,0,2.57,0.54,3.37,1.42l-0.88,0.87c-0.54-0.59-1.5-1.04-2.49-1.04c-1.88,0-3.34,1.5-3.34,3.49c0,2.08,1.5,3.49,3.46,3.49
		c0.97,0,1.78-0.37,2.26-0.86v-2.37h-2.63v-1.25h3.95V96.55z"/>
	<path d="M192.02,88.91h1.32v9.22h-1.32V88.91z"/>
	<path d="M196.56,88.91h6.32v1.25h-2.5v7.97h-1.32v-7.97h-2.5V88.91z"/>
	<path d="M210.41,95.76h-3.88l-0.96,2.37h-1.37l3.82-9.22h0.92l3.82,9.22h-1.37L210.41,95.76z M207.05,94.51h2.84l-1.42-3.42
		L207.05,94.51z"/>
	<path d="M217.16,96.88h4.08v1.25h-5.4v-9.22h1.32V96.88z"/>
	<path d="M229.79,95.82c0.54,0.66,1.3,1.19,2.25,1.19c0.86,0,1.61-0.55,1.61-1.38c0-1.41-1.95-1.57-3.17-2.37
		c-0.66-0.43-1.17-1.07-1.17-2.03c0-1.34,1.18-2.45,2.79-2.45c1.17,0,1.99,0.51,2.48,0.92l-0.78,0.96c-0.5-0.42-1.07-0.63-1.65-0.63
		c-0.76,0-1.53,0.43-1.53,1.24c0,1.17,1.96,1.42,3.15,2.21c0.62,0.41,1.2,1.05,1.2,2.11c0,1.62-1.25,2.67-2.86,2.67
		c-1.26,0-2.41-0.55-3.23-1.54L229.79,95.82z"/>
	<path d="M242.45,88.78c1.32,0,2.57,0.54,3.37,1.42l-0.88,0.87c-0.54-0.59-1.5-1.04-2.49-1.04c-1.88,0-3.34,1.5-3.34,3.49
		c0,2.08,1.5,3.49,3.46,3.49c1.24,0,2.13-0.68,2.65-1.3l0.94,0.84c-0.79,1.01-2.16,1.71-3.58,1.71c-2.75,0-4.78-2.01-4.78-4.74
		C237.79,90.86,239.79,88.78,242.45,88.78z"/>
	<path d="M249.44,88.91h1.32v9.22h-1.32V88.91z"/>
	<path d="M259.32,92.53v1.25h-3.03v3.09h4.08v1.25h-5.4v-9.22h5.27v1.25h-3.95v2.37H259.32z"/>
	<path d="M265.24,91.36v6.77h-1.32v-9.22h0.92l5.53,6.77v-6.77h1.32v9.22h-0.92L265.24,91.36z"/>
	<path d="M279.84,88.78c1.32,0,2.57,0.54,3.37,1.42l-0.88,0.87c-0.54-0.59-1.5-1.04-2.49-1.04c-1.88,0-3.34,1.5-3.34,3.49
		c0,2.08,1.5,3.49,3.46,3.49c1.24,0,2.13-0.68,2.65-1.3l0.94,0.84c-0.79,1.01-2.16,1.71-3.58,1.71c-2.75,0-4.78-2.01-4.78-4.74
		C275.18,90.86,277.18,88.78,279.84,88.78z"/>
	<path d="M291.18,92.53v1.25h-3.03v3.09h4.08v1.25h-5.4v-9.22h5.27v1.25h-3.95v2.37H291.18z"/>
	<path d="M295.9,95.82c0.54,0.66,1.3,1.19,2.25,1.19c0.86,0,1.61-0.55,1.61-1.38c0-1.41-1.95-1.57-3.17-2.37
		c-0.66-0.43-1.17-1.07-1.17-2.03c0-1.34,1.19-2.45,2.79-2.45c1.17,0,1.99,0.51,2.48,0.92l-0.78,0.96c-0.5-0.42-1.07-0.63-1.65-0.63
		c-0.76,0-1.53,0.43-1.53,1.24c0,1.17,1.96,1.42,3.15,2.21c0.62,0.41,1.2,1.05,1.2,2.11c0,1.62-1.25,2.67-2.86,2.67
		c-1.26,0-2.41-0.55-3.23-1.54L295.9,95.82z"/>
</g>
<g>
	<rect x="90.15" y="29.76" class="st0" width="15.36" height="2.61"/>
	<rect x="83.56" y="12.52" class="st0" width="2.64" height="37.09"/>
	<rect x="109.47" y="12.52" class="st0" width="2.64" height="37.09"/>
</g>
<g>
	<path d="M35.97,74.25h1.32V97.4h-1.32V74.25z M40,85.17h5.76c2.69,0,4.83-2.17,4.83-4.82c0-2.65-2.17-4.79-4.83-4.79H40v-1.31h5.76
		c3.39,0,6.15,2.72,6.15,6.1c0,3.38-2.76,6.13-6.15,6.13H40V85.17z M47.35,88.98l5.23,8.42h-1.56l-5.11-8.23
		C46.4,89.15,46.9,89.1,47.35,88.98z"/>
	<path d="M56.91,93.68c1.39,1.45,3.23,2.23,5.32,2.57v1.33c-2.41-0.3-4.81-1.41-6.33-3.04L56.91,93.68z M64.94,96.25
		c2.9-0.34,4.96-2.05,4.96-4.8c0-2.74-2.05-3.75-4.51-4.69l-4.73-1.8c-2.61-0.99-4.22-2.81-4.22-5.31c0-3.28,2.78-5.36,5.66-5.58
		v1.31c-2.07,0.2-4.34,1.63-4.34,4.23c0,1.73,1,3.23,3.35,4.12l4.78,1.8c2.79,1.06,5.32,2.44,5.32,5.91c0,3.73-2.9,5.75-6.28,6.13
		V96.25z M64.82,74.08c0,0,3.3,0.25,5.72,2.52l-0.88,0.97c-1.63-1.43-3.12-1.85-4.84-2.18V74.08z"/>
	<path d="M75.64,74.25h1.32V97.4h-1.32V74.25z M79.67,96.09h2.39c5.71-0.02,10.35-4.6,10.35-10.26c0-5.66-4.64-10.26-10.35-10.26
		h-2.39v-1.31h2.39c6.44,0,11.67,5.17,11.67,11.58c0,6.38-5.23,11.58-11.67,11.58h-2.39V96.09z"/>
	<path d="M97.04,93.68c1.39,1.45,3.23,2.23,5.32,2.57v1.33c-2.41-0.3-4.81-1.41-6.33-3.04L97.04,93.68z M105.07,96.25
		c2.9-0.34,4.96-2.05,4.96-4.8c0-2.74-2.05-3.75-4.51-4.69l-4.73-1.8c-2.61-0.99-4.22-2.81-4.22-5.31c0-3.28,2.78-5.36,5.66-5.58
		v1.31c-2.07,0.2-4.34,1.63-4.34,4.23c0,1.73,1,3.23,3.35,4.12l4.78,1.8c2.79,1.06,5.32,2.44,5.32,5.91c0,3.73-2.9,5.75-6.28,6.13
		V96.25z M104.95,74.08c0,0,3.3,0.25,5.72,2.52l-0.88,0.97c-1.63-1.43-3.12-1.85-4.84-2.18V74.08z"/>
</g>
</svg>
