<svg xmlns="http://www.w3.org/2000/svg" enable-background="new 0 0 24 24" viewBox="0 0 24 24" id="probot"><path fill="#AEDFE4" d="M13.75,2.5c0,0.08,0,0.15-0.03,0.22c0,0.13-0.03,0.25-0.08,0.37c-0.03,0.08-0.06,0.15-0.1,0.22c-0.04,0.08-0.09,0.16-0.14,0.23c-0.05,0.07-0.11,0.14-0.18,0.21c-0.09,0.1-0.2,0.18-0.31,0.24c-0.06,0.04-0.13,0.08-0.2,0.1c-0.02,0.02-0.04,0.03-0.06,0.03c-0.04,0.02-0.08,0.04-0.12,0.05l0.61,2.58h-2.31l0.63-2.59h-0.01c-0.03-0.01-0.05-0.02-0.08-0.03c-0.08-0.03-0.15-0.06-0.22-0.11c-0.06-0.03-0.12-0.07-0.18-0.11c-0.07-0.05-0.14-0.1-0.2-0.17c-0.12-0.11-0.23-0.26-0.3-0.41c-0.02-0.02-0.03-0.04-0.03-0.06c-0.03-0.06-0.06-0.13-0.09-0.21c-0.01-0.01-0.01-0.01,0-0.02c-0.03-0.08-0.05-0.16-0.07-0.25c-0.01-0.02-0.01-0.04,0-0.06c-0.02-0.07-0.03-0.15-0.03-0.23c0-0.49,0.2-0.93,0.52-1.24c0.32-0.32,0.75-0.51,1.23-0.51s0.91,0.19,1.23,0.51C13.55,1.57,13.75,2.01,13.75,2.5z"></path><path fill="#AEDFE4" d="M23.011,20.819c0,1.347-0.977,2.44-2.182,2.44H3.173c-1.205,0-2.182-1.093-2.182-2.44V8.44C0.991,7.093,1.968,6,3.173,6h17.657c1.205,0,2.182,1.093,2.182,2.44V20.819z"></path><path fill="#EF4136" d="M14.826,21.083H9.214c-0.313,0-0.567-0.254-0.567-0.567v-1.032c0-0.313,0.254-0.567,0.567-0.567h5.612c0.313,0,0.567,0.254,0.567,0.567v1.032C15.393,20.829,15.139,21.083,14.826,21.083z"></path><path fill="#27B0D8" d="M17,9.306c-2.349,0-4.253,1.91-4.253,4.267c0,2.357,1.904,4.267,4.253,4.267c2.349,0,4.253-1.91,4.253-4.267C21.253,11.216,19.349,9.306,17,9.306z"></path><path fill="#F1F1F2" d="M16.989,15.565c-0.012,0-0.024,0-0.035-0.001h0.002c-1.082-0.019-1.952-0.903-1.952-1.992s0.87-1.972,1.95-1.991h0.002c0.01,0,0.022,0,0.033,0c1.096,0,1.985,0.892,1.985,1.992S18.085,15.565,16.989,15.565z"></path><path fill="#27B0D8" d="M7,9.306c-2.349,0-4.253,1.91-4.253,4.267c0,2.357,1.904,4.267,4.253,4.267c2.349,0,4.253-1.91,4.253-4.267C11.253,11.216,9.349,9.306,7,9.306z"></path><path fill="#F1F1F2" d="M6.989,15.565c-0.012,0-0.024,0-0.035-0.001h0.002c-1.082-0.019-1.952-0.903-1.952-1.992s0.87-1.972,1.95-1.991h0.002c0.01,0,0.022,0,0.033,0c1.096,0,1.985,0.892,1.985,1.992S8.085,15.565,6.989,15.565z"></path><path fill="#EF4136" d="M13.75,1.75c0,0.08,0,0.15-0.03,0.22c0,0.13-0.03,0.25-0.08,0.37c-0.03,0.08-0.06,0.15-0.1,0.22c-0.04,0.08-0.09,0.16-0.14,0.23C13.35,2.86,13.29,2.93,13.22,3c-0.09,0.1-0.2,0.18-0.31,0.24c-0.06,0.04-0.13,0.08-0.2,0.1c-0.02,0.02-0.04,0.03-0.06,0.03C12.45,3.46,12.23,3.5,12,3.5c-0.22,0-0.44-0.04-0.63-0.12c-0.08-0.03-0.15-0.06-0.22-0.11c-0.06-0.03-0.12-0.07-0.18-0.11c-0.07-0.05-0.14-0.1-0.2-0.17c-0.12-0.11-0.23-0.26-0.3-0.41c-0.02-0.02-0.03-0.04-0.03-0.06c-0.03-0.06-0.06-0.13-0.09-0.21c-0.01-0.01-0.01-0.01,0-0.02c-0.03-0.08-0.05-0.16-0.07-0.25c-0.01-0.02-0.01-0.04,0-0.06c-0.02-0.07-0.03-0.15-0.03-0.23c0-0.49,0.2-0.93,0.52-1.24C11.09,0.19,11.52,0,12,0s0.91,0.19,1.23,0.51C13.55,0.82,13.75,1.26,13.75,1.75z"></path><rect width="2.357" height="1.678" x="10.821" y="19.159" fill="#FCBA62"></rect><path d="M7,15.857c-1.3,0-2.357-1.058-2.357-2.357S5.7,11.143,7,11.143S9.357,12.2,9.357,13.5S8.3,15.857,7,15.857z M7,12.643c-0.473,0-0.857,0.385-0.857,0.857S6.527,14.357,7,14.357s0.857-0.385,0.857-0.857S7.473,12.643,7,12.643z"></path><path d="M7,18c-2.481,0-4.5-2.019-4.5-4.5S4.519,9,7,9s4.5,2.019,4.5,4.5S9.481,18,7,18z M7,10.5c-1.654,0-3,1.346-3,3s1.346,3,3,3s3-1.346,3-3S8.654,10.5,7,10.5z"></path><path d="M21.25,24H2.75C1.233,24,0,22.767,0,21.25V8.5c0-1.517,1.233-2.75,2.75-2.75h7.542l0.325-1.335C9.977,3.968,9.581,3.232,9.581,2.426C9.581,1.088,10.666,0,12,0s2.42,1.088,2.42,2.426c0,0.814-0.403,1.554-1.051,1.999l0.316,1.325h7.564C22.767,5.75,24,6.983,24,8.5v12.75C24,22.767,22.767,24,21.25,24z M2.75,7.25C2.061,7.25,1.5,7.811,1.5,8.5v12.75c0,0.689,0.561,1.25,1.25,1.25h18.5c0.689,0,1.25-0.561,1.25-1.25V8.5c0-0.689-0.561-1.25-1.25-1.25h-8.156c-0.347,0-0.649-0.238-0.729-0.576l-0.373-1.562l-0.382,1.566c-0.082,0.336-0.383,0.572-0.729,0.572H2.75z M12,1.5c-0.507,0-0.919,0.415-0.919,0.926c0,0.4,0.253,0.754,0.63,0.88c0.107,0.035,0.203,0.094,0.282,0.168c0.077-0.071,0.172-0.128,0.278-0.162c0.388-0.126,0.648-0.482,0.648-0.886C12.92,1.915,12.507,1.5,12,1.5z"></path><path d="M14.5,22h-5c-0.965,0-1.75-0.785-1.75-1.75v-0.5C7.75,18.785,8.535,18,9.5,18h5c0.965,0,1.75,0.785,1.75,1.75v0.5C16.25,21.215,15.465,22,14.5,22z M9.5,19.5c-0.138,0-0.25,0.112-0.25,0.25v0.5c0,0.138,0.112,0.25,0.25,0.25h5c0.138,0,0.25-0.112,0.25-0.25v-0.5c0-0.138-0.112-0.25-0.25-0.25H9.5z"></path><path d="M10.709 22c-.414 0-.75-.336-.75-.75v-2.5c0-.414.336-.75.75-.75s.75.336.75.75v2.5C11.459 21.664 11.123 22 10.709 22zM13.209 22c-.414 0-.75-.336-.75-.75v-2.5c0-.414.336-.75.75-.75s.75.336.75.75v2.5C13.959 21.664 13.623 22 13.209 22zM17 15.857c-1.3 0-2.357-1.058-2.357-2.357S15.7 11.143 17 11.143s2.357 1.058 2.357 2.357S18.3 15.857 17 15.857zM17 12.643c-.473 0-.857.385-.857.857s.385.857.857.857.857-.385.857-.857S17.473 12.643 17 12.643z"></path><path d="M17,18c-2.481,0-4.5-2.019-4.5-4.5S14.519,9,17,9s4.5,2.019,4.5,4.5S19.481,18,17,18z M17,10.5c-1.654,0-3,1.346-3,3s1.346,3,3,3s3-1.346,3-3S18.654,10.5,17,10.5z"></path></svg>