<?xml version="1.0" encoding="utf-8"?>
<!-- Generator: Adobe Illustrator 27.5.0, SVG Export Plug-In . SVG Version: 6.00 Build 0)  -->
<svg version="1.1" id="Ebene_1" xmlns="http://www.w3.org/2000/svg" xmlns:xlink="http://www.w3.org/1999/xlink" x="0px" y="0px"
	 viewBox="0 0 75.86 24.07" style="enable-background:new 0 0 75.86 24.07;" xml:space="preserve">
<g>
	<path d="M0.48,0.92H1.8v23.15H0.48V0.92z M4.51,11.84h5.76c2.69,0,4.83-2.17,4.83-4.82c0-2.65-2.17-4.79-4.83-4.79H4.51V0.92h5.76
		c3.39,0,6.15,2.72,6.15,6.1c0,3.38-2.76,6.13-6.15,6.13H4.51V11.84z M11.86,15.65l5.23,8.42h-1.56l-5.11-8.23
		C10.92,15.82,11.41,15.77,11.86,15.65z"/>
	<path d="M21.43,20.36c1.39,1.45,3.23,2.23,5.32,2.57v1.33c-2.41-0.3-4.81-1.41-6.33-3.04L21.43,20.36z M29.45,22.93
		c2.9-0.34,4.96-2.05,4.96-4.8c0-2.74-2.05-3.75-4.51-4.69l-4.73-1.8c-2.61-0.99-4.22-2.81-4.22-5.31c0-3.28,2.78-5.36,5.66-5.58
		v1.31c-2.07,0.2-4.34,1.63-4.34,4.23c0,1.73,1,3.23,3.35,4.12l4.78,1.8c2.79,1.06,5.32,2.44,5.32,5.91c0,3.73-2.9,5.75-6.28,6.13
		V22.93z M29.33,0.75c0,0,3.3,0.25,5.72,2.52l-0.88,0.97c-1.63-1.43-3.12-1.85-4.84-2.18V0.75z"/>
	<path d="M40.15,0.92h1.32v23.15h-1.32V0.92z M44.18,22.76h2.39c5.71-0.02,10.35-4.6,10.35-10.26c0-5.66-4.64-10.26-10.35-10.26
		h-2.39V0.92h2.39c6.44,0,11.67,5.17,11.67,11.58c0,6.38-5.23,11.58-11.67,11.58h-2.39V22.76z"/>
	<path d="M61.55,20.36c1.39,1.45,3.23,2.23,5.32,2.57v1.33c-2.41-0.3-4.81-1.41-6.33-3.04L61.55,20.36z M69.58,22.93
		c2.9-0.34,4.96-2.05,4.96-4.8c0-2.74-2.05-3.75-4.51-4.69l-4.73-1.8c-2.61-0.99-4.22-2.81-4.22-5.31c0-3.28,2.78-5.36,5.66-5.58
		v1.31c-2.07,0.2-4.34,1.63-4.34,4.23c0,1.73,1,3.23,3.35,4.12l4.78,1.8c2.79,1.06,5.32,2.44,5.32,5.91c0,3.73-2.9,5.75-6.28,6.13
		V22.93z M69.46,0.75c0,0,3.3,0.25,5.72,2.52L74.3,4.24c-1.63-1.43-3.12-1.85-4.84-2.18V0.75z"/>
</g>
</svg>
